<svg version="1.1" xmlns="http://www.w3.org/2000/svg" viewBox="-51.000001 -101.000001 102.000002 202.000002" fill="none" stroke="black" stroke-width="0.6%" vector-effect="non-scaling-stroke">
    <path d="M -30 -100 L 30 -100 A 20 20 0 0 1 49.96053 -81.25581 L 50 -80 L 50 80 L 49.84229 82.50666 A 20 20 0 0 1 30 100 L -30 100 A 20 20 0 0 1 -49.96053 81.25581 L -50 80 L -50 -80 L -49.84229 -82.50666 A 20 20 0 0 1 -30 -100 Z" />
    <path d="M -39.92115 -81.25333 A 10 10 0 0 1 -30 -90 L 30 -90 A 10 10 0 0 1 39.98027 -80.62791 L 40 -80 L 40 80 L 39.92115 81.25333 A 10 10 0 0 1 30 90 L -30 90 A 10 10 0 0 1 -39.98027 80.62791 L -40 80 L -40 -80 L -39.92115 -81.25333 Z" />
</svg>