<svg version="1.1" xmlns="http://www.w3.org/2000/svg" viewBox="-501.000001 -1001.000001 1002.000002 2002.000002" fill="none" stroke="black" stroke-width="0.6%" vector-effect="non-scaling-stroke">
    <path d="M -400 -1000 L 400 -1000 A 100 100 0 0 1 499.80267 -906.27905 L 500 -900 L 500 900 L 499.21147 912.53332 A 100 100 0 0 1 400 1000 L -400 1000 A 100 100 0 0 1 -499.80267 906.27905 L -500 900 L -500 -900 L -499.21147 -912.53332 A 100 100 0 0 1 -400 -1000 Z" />
    <path d="M -469.44803 -908.77333 A 70 70 0 0 1 -400 -970 L 400 -970 A 70 70 0 0 1 469.86187 -904.39534 L 470 -900 L 470 900 L 469.44803 908.77333 A 70 70 0 0 1 400 970 L -400 970 A 70 70 0 0 1 -469.86187 904.39534 L -470 900 L -470 -900 L -469.44803 -908.77333 Z" />
</svg>